<mxfile host="app.diagrams.net" modified="2021-07-01T02:06:46.988Z" agent="5.0 (Windows NT 10.0; Win64; x64) AppleWebKit/537.36 (KHTML, like Gecko) Chrome/91.0.4472.77 Safari/537.36" etag="KfgbafJ21jKgvxFjWsDL" version="14.8.3" type="github">
  <diagram id="4o2cRQCNRg9T0_2qzqOx" name="第 1 页">
    <mxGraphModel dx="1036" dy="477" grid="0" gridSize="10" guides="1" tooltips="1" connect="1" arrows="1" fold="1" page="0" pageScale="1" pageWidth="827" pageHeight="1169" background="none" math="0" shadow="0">
      <root>
        <mxCell id="0" />
        <mxCell id="1" parent="0" />
        <mxCell id="ViussSxc1X9-L0ZqmsDI-6" style="edgeStyle=orthogonalEdgeStyle;rounded=0;orthogonalLoop=1;jettySize=auto;html=1;" edge="1" parent="1" source="ViussSxc1X9-L0ZqmsDI-1" target="ViussSxc1X9-L0ZqmsDI-5">
          <mxGeometry relative="1" as="geometry" />
        </mxCell>
        <mxCell id="ViussSxc1X9-L0ZqmsDI-7" value="保存到磁盘" style="edgeLabel;html=1;align=center;verticalAlign=middle;resizable=0;points=[];" vertex="1" connectable="0" parent="ViussSxc1X9-L0ZqmsDI-6">
          <mxGeometry x="-0.3103" y="2" relative="1" as="geometry">
            <mxPoint x="9" y="2" as="offset" />
          </mxGeometry>
        </mxCell>
        <mxCell id="ViussSxc1X9-L0ZqmsDI-1" value="后台服务" style="rounded=0;whiteSpace=wrap;html=1;" vertex="1" parent="1">
          <mxGeometry x="220" y="290" width="120" height="60" as="geometry" />
        </mxCell>
        <mxCell id="ViussSxc1X9-L0ZqmsDI-3" style="edgeStyle=orthogonalEdgeStyle;rounded=0;orthogonalLoop=1;jettySize=auto;html=1;" edge="1" parent="1" source="ViussSxc1X9-L0ZqmsDI-2" target="ViussSxc1X9-L0ZqmsDI-1">
          <mxGeometry relative="1" as="geometry" />
        </mxCell>
        <mxCell id="ViussSxc1X9-L0ZqmsDI-4" value="上传图片" style="edgeLabel;html=1;align=center;verticalAlign=middle;resizable=0;points=[];" vertex="1" connectable="0" parent="ViussSxc1X9-L0ZqmsDI-3">
          <mxGeometry x="-0.21" y="2" relative="1" as="geometry">
            <mxPoint x="9" y="2" as="offset" />
          </mxGeometry>
        </mxCell>
        <mxCell id="ViussSxc1X9-L0ZqmsDI-2" value="用户" style="shape=umlActor;verticalLabelPosition=bottom;verticalAlign=top;html=1;outlineConnect=0;" vertex="1" parent="1">
          <mxGeometry x="92" y="290" width="30" height="60" as="geometry" />
        </mxCell>
        <mxCell id="ViussSxc1X9-L0ZqmsDI-5" value="" style="aspect=fixed;perimeter=ellipsePerimeter;html=1;align=center;shadow=0;dashed=0;spacingTop=3;image;image=img/lib/active_directory/database_server.svg;imageBackground=#ffffff;sketch=0;" vertex="1" parent="1">
          <mxGeometry x="446" y="295" width="41" height="50" as="geometry" />
        </mxCell>
        <mxCell id="ViussSxc1X9-L0ZqmsDI-28" style="edgeStyle=orthogonalEdgeStyle;rounded=0;orthogonalLoop=1;jettySize=auto;html=1;entryX=0;entryY=0.5;entryDx=0;entryDy=0;" edge="1" parent="1" source="ViussSxc1X9-L0ZqmsDI-20" target="ViussSxc1X9-L0ZqmsDI-24">
          <mxGeometry relative="1" as="geometry" />
        </mxCell>
        <mxCell id="ViussSxc1X9-L0ZqmsDI-31" style="edgeStyle=orthogonalEdgeStyle;rounded=0;orthogonalLoop=1;jettySize=auto;html=1;" edge="1" parent="1" source="ViussSxc1X9-L0ZqmsDI-20" target="ViussSxc1X9-L0ZqmsDI-23">
          <mxGeometry relative="1" as="geometry" />
        </mxCell>
        <mxCell id="ViussSxc1X9-L0ZqmsDI-20" value="后台服务" style="rounded=0;whiteSpace=wrap;html=1;" vertex="1" parent="1">
          <mxGeometry x="218" y="402" width="120" height="60" as="geometry" />
        </mxCell>
        <mxCell id="ViussSxc1X9-L0ZqmsDI-21" style="edgeStyle=orthogonalEdgeStyle;rounded=0;orthogonalLoop=1;jettySize=auto;html=1;" edge="1" parent="1" source="ViussSxc1X9-L0ZqmsDI-23" target="ViussSxc1X9-L0ZqmsDI-20">
          <mxGeometry relative="1" as="geometry" />
        </mxCell>
        <mxCell id="ViussSxc1X9-L0ZqmsDI-22" value="访问图片" style="edgeLabel;html=1;align=center;verticalAlign=middle;resizable=0;points=[];" vertex="1" connectable="0" parent="ViussSxc1X9-L0ZqmsDI-21">
          <mxGeometry x="-0.21" y="2" relative="1" as="geometry">
            <mxPoint x="9" y="2" as="offset" />
          </mxGeometry>
        </mxCell>
        <mxCell id="ViussSxc1X9-L0ZqmsDI-23" value="用户" style="shape=umlActor;verticalLabelPosition=bottom;verticalAlign=top;html=1;outlineConnect=0;" vertex="1" parent="1">
          <mxGeometry x="90" y="402" width="30" height="60" as="geometry" />
        </mxCell>
        <mxCell id="ViussSxc1X9-L0ZqmsDI-32" style="edgeStyle=orthogonalEdgeStyle;rounded=0;orthogonalLoop=1;jettySize=auto;html=1;" edge="1" parent="1" source="ViussSxc1X9-L0ZqmsDI-24" target="ViussSxc1X9-L0ZqmsDI-20">
          <mxGeometry relative="1" as="geometry" />
        </mxCell>
        <mxCell id="ViussSxc1X9-L0ZqmsDI-33" value="访问图片" style="edgeLabel;html=1;align=center;verticalAlign=middle;resizable=0;points=[];fontColor=#000000;" vertex="1" connectable="0" parent="ViussSxc1X9-L0ZqmsDI-32">
          <mxGeometry x="0.1555" y="-1" relative="1" as="geometry">
            <mxPoint x="10" y="1" as="offset" />
          </mxGeometry>
        </mxCell>
        <mxCell id="ViussSxc1X9-L0ZqmsDI-24" value="" style="aspect=fixed;perimeter=ellipsePerimeter;html=1;align=center;shadow=0;dashed=0;spacingTop=3;image;image=img/lib/active_directory/database_server.svg;imageBackground=#ffffff;sketch=0;" vertex="1" parent="1">
          <mxGeometry x="444" y="407" width="41" height="50" as="geometry" />
        </mxCell>
      </root>
    </mxGraphModel>
  </diagram>
</mxfile>
